<svg width="7853" height="3769" viewBox="0 0 7853 3769" fill="none" xmlns="http://www.w3.org/2000/svg">
<rect width="7853" height="3769" fill="#EEEEEE"/>
<path d="M2486 1385V1785C2486 1840.23 2530.77 1885 2586 1885H2986V2285C2986 2340.23 2941.23 2385 2886 2385H2086C2030.77 2385 1986 2340.23 1986 2285V1485C1986 1429.77 2030.77 1385 2086 1385H2486Z" fill="#333333"/>
<path d="M2486.5 1385L2986 1884.5V1885H2586C2530.77 1885 2486 1840.23 2486 1785V1385H2486.5Z" fill="#DDDDDD"/>
<path d="M3501.63 2082V1659H3559.23L3802.23 1974.6H3786.63V1659H3858.03V2082H3801.03L3558.03 1765.8H3573.03V2082H3501.63ZM4077.06 2088C4046.66 2088 4020.26 2081.8 3997.86 2069.4C3975.46 2057 3958.06 2039.4 3945.66 2016.6C3933.26 1993.4 3927.06 1966.2 3927.06 1935C3927.06 1903.8 3933.26 1876.8 3945.66 1854C3958.06 1831.2 3975.46 1813.6 3997.86 1801.2C4020.26 1788.8 4046.66 1782.6 4077.06 1782.6C4107.46 1782.6 4133.86 1788.8 4156.26 1801.2C4178.66 1813.6 4196.06 1831.2 4208.46 1854C4220.86 1876.8 4227.06 1903.8 4227.06 1935C4227.06 1966.2 4220.86 1993.4 4208.46 2016.6C4196.06 2039.4 4178.66 2057 4156.26 2069.4C4133.86 2081.8 4107.46 2088 4077.06 2088ZM4077.06 2031C4099.46 2031 4117.46 2023 4131.06 2007C4144.66 1990.6 4151.46 1966.6 4151.46 1935C4151.46 1903 4144.66 1879.2 4131.06 1863.6C4117.46 1847.6 4099.46 1839.6 4077.06 1839.6C4054.66 1839.6 4036.66 1847.6 4023.06 1863.6C4009.46 1879.2 4002.66 1903 4002.66 1935C4002.66 1966.6 4009.46 1990.6 4023.06 2007C4036.66 2023 4054.66 2031 4077.06 2031ZM4420.44 2088C4381.24 2088 4352.04 2078.2 4332.84 2058.6C4313.64 2039 4304.04 2010.4 4304.04 1972.8V1845H4247.64V1788.6H4304.04V1701H4379.04V1788.6H4467.84V1845H4379.04V1968.6C4379.04 1987.8 4383.24 2002.2 4391.64 2011.8C4400.04 2021.4 4413.64 2026.2 4432.44 2026.2C4438.04 2026.2 4443.84 2025.6 4449.84 2024.4C4455.84 2022.8 4462.04 2021.2 4468.44 2019.6L4479.84 2074.8C4472.64 2078.8 4463.44 2082 4452.24 2084.4C4441.44 2086.8 4430.84 2088 4420.44 2088ZM4657.98 2088C4624.78 2088 4596.18 2081.8 4572.18 2069.4C4548.18 2057 4529.58 2039.4 4516.38 2016.6C4503.58 1993.8 4497.18 1966.8 4497.18 1935.6C4497.18 1905.2 4503.38 1878.6 4515.78 1855.8C4528.58 1833 4545.98 1815.2 4567.98 1802.4C4590.38 1789.2 4615.78 1782.6 4644.18 1782.6C4672.18 1782.6 4696.18 1788.6 4716.18 1800.6C4736.18 1812.6 4751.58 1829.6 4762.38 1851.6C4773.58 1873.6 4779.18 1899.8 4779.18 1930.2V1952.4H4557.78V1909.2H4726.38L4716.78 1918.2C4716.78 1891 4710.78 1870.2 4698.78 1855.8C4686.78 1841 4669.58 1833.6 4647.18 1833.6C4630.38 1833.6 4615.98 1837.6 4603.98 1845.6C4592.38 1853.2 4583.38 1864.2 4576.98 1878.6C4570.98 1892.6 4567.98 1909.4 4567.98 1929V1933.2C4567.98 1955.2 4571.38 1973.4 4578.18 1987.8C4584.98 2002.2 4595.18 2013 4608.78 2020.2C4622.38 2027.4 4639.18 2031 4659.18 2031C4675.58 2031 4691.98 2028.6 4708.38 2023.8C4724.78 2018.6 4739.78 2010.6 4753.38 1999.8L4774.38 2050.2C4760.38 2061.8 4742.78 2071 4721.58 2077.8C4700.38 2084.6 4679.18 2088 4657.98 2088ZM4838.57 2190V1788.6H4911.77V1850.4H4905.77C4911.77 1830 4923.97 1813.6 4942.37 1801.2C4961.17 1788.8 4982.97 1782.6 5007.77 1782.6C5033.37 1782.6 5055.77 1788.8 5074.97 1801.2C5094.57 1813.6 5109.77 1831.2 5120.57 1854C5131.37 1876.4 5136.77 1903.4 5136.77 1935C5136.77 1966.2 5131.37 1993.4 5120.57 2016.6C5109.77 2039.4 5094.77 2057 5075.57 2069.4C5056.37 2081.8 5033.77 2088 5007.77 2088C4983.37 2088 4961.97 2082 4943.57 2070C4925.17 2057.6 4912.77 2041.6 4906.37 2022H4913.57V2190H4838.57ZM4986.77 2031C5009.17 2031 5027.17 2023 5040.77 2007C5054.37 1990.6 5061.17 1966.6 5061.17 1935C5061.17 1903 5054.37 1879.2 5040.77 1863.6C5027.17 1847.6 5009.17 1839.6 4986.77 1839.6C4964.37 1839.6 4946.37 1847.6 4932.77 1863.6C4919.17 1879.2 4912.37 1903 4912.37 1935C4912.37 1966.6 4919.17 1990.6 4932.77 2007C4946.37 2023 4964.37 2031 4986.77 2031ZM5304.54 2088C5280.14 2088 5259.94 2083.6 5243.94 2074.8C5227.94 2065.6 5215.94 2052 5207.94 2034C5200.34 2016 5196.54 1993.6 5196.54 1966.8V1788.6H5271.54V1968C5271.54 1981.6 5273.34 1993 5276.94 2002.2C5280.94 2011.4 5286.74 2018.2 5294.34 2022.6C5302.34 2027 5312.34 2029.2 5324.34 2029.2C5337.94 2029.2 5349.74 2026.2 5359.74 2020.2C5370.14 2013.8 5378.14 2005 5383.74 1993.8C5389.74 1982.2 5392.74 1968.8 5392.74 1953.6V1788.6H5467.74V2082H5394.54V2020.8H5402.94C5394.54 2042.4 5381.74 2059 5364.54 2070.6C5347.74 2082.2 5327.74 2088 5304.54 2088ZM5715 2088C5690.2 2088 5668.4 2081.8 5649.6 2069.4C5631.2 2057 5619 2040.4 5613 2019.6H5619V2082H5545.8V1659H5620.8V1848H5613.6C5620 1828.4 5632.4 1812.6 5650.8 1800.6C5669.2 1788.6 5690.6 1782.6 5715 1782.6C5741 1782.6 5763.6 1788.8 5782.8 1801.2C5802 1813.6 5817 1831.2 5827.8 1854C5838.6 1876.4 5844 1903.4 5844 1935C5844 1966.2 5838.6 1993.4 5827.8 2016.6C5817 2039.4 5801.8 2057 5782.2 2069.4C5763 2081.8 5740.6 2088 5715 2088ZM5694 2031C5716.4 2031 5734.4 2023 5748 2007C5761.6 1990.6 5768.4 1966.6 5768.4 1935C5768.4 1903 5761.6 1879.2 5748 1863.6C5734.4 1847.6 5716.4 1839.6 5694 1839.6C5671.6 1839.6 5653.6 1847.6 5640 1863.6C5626.4 1879.2 5619.6 1903 5619.6 1935C5619.6 1966.6 5626.4 1990.6 5640 2007C5653.6 2023 5671.6 2031 5694 2031Z" fill="#333333"/>
</svg>
